# xmcd
#
# Track frame offsets: 
#        150
#        12482
#        23845
#        37632
#        56107
#        67472
#
# Disc length: 1107 seconds
#
# Revision: 0
# Processed by: cddbd v1.5.2PL0 Copyright (c) Steve Scherf et al.
# Submitted via: ExactAudioCopy v0.99pb3
#
DISCID=4d045106
DTITLE=Hayride - Good 'n' Country
DYEAR=1900
DGENRE=Country
TTITLE0=Hayride - I'm Down To My Last Cigarette - Good 'n' Country
TTITLE1=Hayride - I Ain't Never - Good 'n' Counry
TTITLE2=Hayride - Cry Cry - Good 'n' Country
TTITLE3=Hayride - Storms Never Last - Good 'n' Couuntry
TTITLE4=Hayride - Sour Grapes - Good 'n' Country
TTITLE5=Hayride - Stand By Your Man - Good 'n' Counry
EXTD=
EXTT0=
EXTT1=
EXTT2=
EXTT3=
EXTT4=
EXTT5=
PLAYORDER=
